<svg width="40" height="24" viewBox="0 0 40 24" fill="none" xmlns="http://www.w3.org/2000/svg">
<g clip-path="url(#clip0_53414_1540)">
<path d="M37.561 0.29248H1.46341C0.655193 0.29248 0 0.936669 0 1.73132V22.2683C0 23.0629 0.655193 23.7071 1.46341 23.7071H37.561C38.3692 23.7071 39.0244 23.0629 39.0244 22.2683V1.73132C39.0244 0.936669 38.3692 0.29248 37.561 0.29248Z" fill="#EAEAEA"/>
<path d="M14.8612 0.766854C19.1253 0.766854 23.3898 0.781602 27.6544 0.757022C28.8249 0.750139 29.9965 0.743749 31.1675 0.729492C31.2678 0.731577 31.3678 0.738633 31.4673 0.750632C31.9434 0.791927 32.0668 1.16603 32.1627 1.56079C33.1674 5.71138 32.8487 10.1319 31.0591 14.0362C30.5825 15.0764 29.9995 16.0567 29.3555 17.002C28.8506 17.7464 28.2956 18.4567 27.6944 19.1282C27.2465 19.6291 26.7707 20.105 26.269 20.5538C25.3248 21.395 24.3206 22.1623 23.153 22.6893C22.5342 22.9646 21.8778 23.1495 21.2046 23.238C20.5302 23.3314 19.8527 23.3304 19.1763 23.3156C15.4373 23.236 11.6978 23.2979 7.95884 23.2817C6.02341 23.2729 4.08797 23.2793 2.15254 23.2817C1.95196 23.2871 1.75179 23.261 1.55952 23.2045C1.16334 23.0777 0.922537 22.736 0.900055 22.2818C0.89356 22.153 0.895558 22.0242 0.895558 21.8949C0.895558 15.2934 0.895558 8.6918 0.895558 2.09025C0.89046 1.90092 0.90435 1.71155 0.937025 1.52491C1.02745 1.07214 1.39316 0.80225 1.85728 0.77472C2.01865 0.764888 2.18102 0.769312 2.34289 0.769312L14.8612 0.766854Z" fill="#2F4653"/>
<path d="M32.0343 18.6745C32.2666 18.612 32.4554 18.4818 32.6338 18.3416C33.3907 17.7468 33.9532 16.9947 34.4323 16.1742C36.1689 13.2112 37.1783 9.89004 37.38 6.47536C37.4004 6.12682 37.4024 5.77925 37.4134 5.4312C37.4134 5.37958 37.4014 5.32452 37.4474 5.26848C37.5857 5.30778 37.7132 5.37717 37.8206 5.47151C39.1625 6.64152 39.3893 8.85767 39.2439 10.4972C38.9007 14.3784 36.7225 18.5211 33.2263 20.5258C33.1454 20.572 33.064 20.6168 32.982 20.66C32.4432 20.938 31.8817 21.1712 31.3034 21.3571L30.9781 21.4653C31.6178 21.4303 32.25 21.313 32.8586 21.1162C34.853 20.4718 36.4417 19.0156 37.5443 17.2931C37.8156 16.8688 38.0589 16.4303 38.2967 15.9883C38.3107 15.9618 38.3252 15.9338 38.3627 15.9259C38.4061 15.9259 38.4246 15.9613 38.4396 15.9957C38.9937 17.2547 38.8508 18.5462 38.0699 19.6827C36.5321 21.9225 33.2843 23.2586 30.598 23.2714C28.122 23.2813 25.6465 23.2783 23.1705 23.2778C23.093 23.2778 22.9741 23.3176 22.9526 23.2095C22.9312 23.1013 23.0561 23.1087 23.1285 23.0758C26.885 21.3763 29.7272 18.4115 31.5797 14.7908C33.1898 11.6446 33.9987 8.08339 33.683 4.56156C33.5828 3.43229 33.368 2.31571 33.042 1.2285C33.0186 1.16401 32.9986 1.09837 32.982 1.03186C32.9371 0.798346 33.0075 0.739353 33.2508 0.762458C33.8447 0.818619 34.4088 1.04473 34.8735 1.41285C35.7783 2.11387 36.1255 3.38417 36.3343 4.45193C36.725 6.45177 36.3253 8.66692 35.8507 10.6235C35.2332 13.17 34.1895 15.658 32.6853 17.824C32.5249 18.055 32.3395 18.2664 32.1672 18.4911C32.1207 18.5496 32.0788 18.6125 32.0343 18.6745Z" fill="url(#paint0_linear_53414_1540)"/>
<path d="M10.6256 10.2764C10.6221 9.96231 10.5227 9.64571 10.2409 9.46972C9.95915 9.29373 9.60194 9.30159 9.38611 9.56263C9.36863 9.58377 9.33116 9.62015 9.34215 9.65112C9.35314 9.68209 9.42109 9.67472 9.44956 9.68848C9.47187 9.70036 9.49012 9.71845 9.50203 9.74049C9.51394 9.76252 9.51898 9.78753 9.51651 9.81237C9.51651 9.87234 9.51401 10.4451 9.51201 11.2346L7.39373 11.2223C7.36268 10.836 7.38605 10.4474 7.46317 10.0675C7.48016 9.98394 7.49964 9.90086 7.52163 9.81827C7.54561 9.72781 7.61205 9.61671 7.60506 9.52331C7.60481 9.51035 7.60044 9.4978 7.59257 9.48742C7.57358 9.46431 7.53761 9.46825 7.50814 9.47562C7.32511 9.52322 7.15625 9.61304 7.01554 9.73764C6.91217 9.83134 6.82494 9.94091 6.75724 10.0621C6.48546 10.5409 6.46448 11.2193 6.46448 11.2193C6.45049 11.6578 6.43301 12.5467 6.90762 13.4694C6.90762 13.4694 7.24085 14.1163 7.71647 14.2761C7.81039 14.3076 7.83587 14.2864 7.84436 14.2761C7.88133 14.2294 7.8019 14.1493 7.77842 14.1134C7.73529 14.0472 7.6977 13.9776 7.66601 13.9054C7.60173 13.7557 7.55399 13.5997 7.52362 13.4399C7.41742 12.9579 7.36714 12.4656 7.37374 11.9725H9.51251V13.8292C9.50884 13.8895 9.5225 13.9495 9.55192 14.0025C9.58135 14.0554 9.62535 14.0992 9.67888 14.1286C9.75023 14.1603 9.82665 14.1794 9.90469 14.1852C10.0398 14.2061 10.1773 14.2061 10.3124 14.1852C10.3921 14.1729 10.4667 14.1388 10.5277 14.0868C10.6221 14.0008 10.6236 13.8843 10.6236 13.7668C10.6236 12.8328 10.6321 11.9017 10.6311 10.9686C10.6304 10.7385 10.6286 10.5078 10.6256 10.2764Z" fill="url(#paint1_linear_53414_1540)"/>
<path d="M7.69595 14.5068C6.83315 14.261 6.49693 13.3589 6.31208 12.5788C6.27211 12.4087 6.23364 12.2415 6.21216 12.0675C6.14321 11.543 6.14621 10.9663 6.31907 10.4604C6.18768 10.4895 6.12773 10.601 6.05079 10.6915C5.77002 11.0219 5.74753 11.4078 5.73404 11.7912C5.71081 12.3734 5.84055 12.9516 6.11074 13.47C6.2221 13.6757 6.35795 13.8677 6.51541 14.0418C6.67304 14.2133 6.85196 14.3645 7.04798 14.4921C6.73121 14.4155 6.44551 14.2461 6.22864 14.0064C6.13999 13.8951 6.05936 13.7778 5.98734 13.6554C5.85045 13.4214 5.67959 13.1294 5.59216 12.7385C5.56768 12.6289 5.55119 12.5173 5.50723 12.5129C5.44428 12.5065 5.37234 12.7287 5.35735 12.7769C5.31795 12.8977 5.29723 13.0236 5.2959 13.1505C5.2994 13.4455 5.52371 14.0192 6.06128 14.4085C6.06128 14.4085 6.5309 14.7487 7.33425 14.7747C7.4658 14.7757 7.59486 14.7394 7.70595 14.67C7.77539 14.6209 7.82235 14.5442 7.69595 14.5068Z" fill="url(#paint2_linear_53414_1540)"/>
<path d="M6.31885 10.458C6.31927 10.4596 6.31927 10.4613 6.31885 10.4629H6.32378L6.31885 10.458Z" fill="url(#paint3_linear_53414_1540)"/>
<path d="M6.31885 10.4601L6.32174 10.4624L6.33331 10.4468L6.31885 10.4601Z" fill="url(#paint4_linear_53414_1540)"/>
<path d="M21.6678 10.1666C21.673 10.0119 21.6599 9.85714 21.6288 9.70544C21.6231 9.66184 21.6115 9.61919 21.5944 9.57861C21.5656 9.50997 21.5169 9.45117 21.4545 9.4095C21.408 9.37944 21.3537 9.36322 21.2981 9.36279C21.2591 9.36279 21.2202 9.36574 21.1812 9.36574C21.1272 9.36574 21.0738 9.36574 21.0198 9.36574C20.9149 9.36574 20.81 9.36574 20.7051 9.3682C20.6585 9.36832 20.6124 9.3776 20.5695 9.3955C20.5266 9.4134 20.4878 9.43955 20.4553 9.47242C20.3754 9.55452 20.3124 9.67152 20.2055 9.92224C20.1875 9.96353 20.174 9.99893 20.164 10.023C20.1246 10.1081 19.56 11.311 19.3472 11.6596C19.3317 11.6856 19.2972 11.7412 19.2533 11.7392C19.2093 11.7372 19.1753 11.6856 19.1598 11.6596C18.947 11.311 18.3825 10.1081 18.3425 10.023C18.333 9.99893 18.3195 9.96353 18.3015 9.92224C18.1966 9.67152 18.1332 9.55452 18.0517 9.47242C18.0193 9.43955 17.9804 9.4134 17.9375 9.3955C17.8946 9.3776 17.8485 9.36832 17.8019 9.3682C17.697 9.36427 17.5921 9.3682 17.4872 9.36574H17.3258C17.2869 9.36574 17.2479 9.36328 17.2089 9.36279C17.1533 9.36322 17.099 9.37944 17.0525 9.4095C16.9898 9.45086 16.9411 9.50976 16.9127 9.57861C16.8955 9.61919 16.8839 9.66184 16.8782 9.70544C16.8472 9.85717 16.834 10.0119 16.8387 10.1666L16.7158 13.8806C16.7173 13.9083 16.7229 13.9356 16.7323 13.9617C16.7968 14.1426 17.0321 14.2321 17.2109 14.2346C17.3898 14.237 17.6106 14.152 17.687 13.9888C17.6969 13.9666 17.7044 13.9436 17.7095 13.9199C17.763 13.6678 17.7939 11.6369 17.8054 10.7521C18.2975 11.7456 18.6832 12.4874 18.8611 12.8168C18.8976 12.8846 18.975 13.0198 19.1169 13.0655C19.2032 13.0944 19.2968 13.0944 19.3832 13.0655C19.525 13.0198 19.6025 12.8846 19.6385 12.8168C19.8168 12.4894 20.202 11.7476 20.6946 10.7521C20.7061 11.6369 20.7371 13.6678 20.7905 13.9199C20.7956 13.9436 20.8032 13.9666 20.813 13.9888C20.8899 14.1535 21.1073 14.238 21.2891 14.2346C21.471 14.2311 21.7028 14.1426 21.7677 13.9617C21.7769 13.9355 21.7824 13.9083 21.7842 13.8806C21.7479 12.6424 21.7091 11.4044 21.6678 10.1666Z" fill="url(#paint5_linear_53414_1540)"/>
<path d="M12.8935 13.0977C12.9048 13.0993 12.9159 13.1016 12.9269 13.1044C12.9175 13.1216 12.8868 13.1133 12.8935 13.0977Z" fill="#EAEAEA"/>
<path d="M15.7416 9.51064C15.6392 9.38332 15.4638 9.37889 15.296 9.37398C15.1366 9.37005 14.9338 9.36464 14.8069 9.50327C14.7518 9.56588 14.7182 9.64398 14.7109 9.72646C14.7079 10.6402 14.7051 11.5539 14.7024 12.4676C14.705 12.6163 14.673 12.7635 14.609 12.8982C14.5451 13.0329 14.4507 13.1514 14.3332 13.2449C14.1751 13.3593 13.9889 13.4303 13.7937 13.4508C13.7627 13.4508 13.7307 13.4548 13.7307 13.4548H13.6808C13.6808 13.4548 13.6483 13.4548 13.6178 13.4508C13.4226 13.4303 13.2364 13.3593 13.0783 13.2449C12.9608 13.1514 12.8666 13.0328 12.8027 12.8981C12.7388 12.7635 12.707 12.6162 12.7096 12.4676L12.7006 9.72646C12.6934 9.64404 12.66 9.56594 12.6051 9.50327C12.4777 9.36464 12.2754 9.37005 12.1155 9.37398C11.9477 9.37889 11.7728 9.38332 11.6704 9.51064C11.6129 9.59122 11.5896 9.69069 11.6055 9.78791V12.6569C11.6087 13.0034 11.7273 13.3393 11.9432 13.6131C12.2354 13.9901 12.6506 14.1582 12.7785 14.203C12.9698 14.2701 13.1688 14.3134 13.371 14.3318C13.5949 14.3475 13.8196 14.3475 14.0435 14.3318C14.2457 14.3134 14.4447 14.2701 14.636 14.203C14.7639 14.1538 15.1791 13.9882 15.4708 13.6131C15.687 13.3394 15.8058 13.0035 15.809 12.6569V9.78791C15.8242 9.69037 15.8 9.59086 15.7416 9.51064Z" fill="url(#paint6_linear_53414_1540)"/>
<path d="M13.1338 14.2817C13.1428 14.2832 13.1516 14.2858 13.1599 14.2894L13.1445 14.2986L13.1338 14.2817Z" fill="#EAEAEA"/>
<path d="M27.3099 10.8911C27.1692 10.4297 26.8821 10.0246 26.4906 9.73534C26.0464 9.40305 25.5038 9.22314 24.9459 9.22314C24.3879 9.22314 23.8453 9.40305 23.4011 9.73534C23.0097 10.0248 22.7224 10.4297 22.5813 10.8911C22.1791 12.2135 22.7841 13.9007 24.2299 14.2733C24.6995 14.3789 25.1872 14.3789 25.6568 14.2733C27.1076 13.9007 27.7121 12.2135 27.3099 10.8911ZM26.2353 12.3659C26.0854 12.9917 25.6613 13.6647 24.9459 13.6721C24.2304 13.6647 23.8078 12.9917 23.6564 12.3659C23.5105 11.7622 23.5375 11.0518 23.8807 10.5135C23.9903 10.3317 24.1461 10.181 24.3328 10.0763C24.5195 9.97168 24.7307 9.91664 24.9456 9.91664C25.1605 9.91664 25.3717 9.97168 25.5584 10.0763C25.7451 10.181 25.9009 10.3317 26.0105 10.5135C26.3542 11.0533 26.3807 11.7637 26.2353 12.3674V12.3659Z" fill="url(#paint7_linear_53414_1540)"/>
</g>
<defs>
<linearGradient id="paint0_linear_53414_1540" x1="21.1376" y1="15.452" x2="39.6812" y2="9.66665" gradientUnits="userSpaceOnUse">
<stop offset="0.33" stop-color="#9C8837"/>
<stop offset="0.56" stop-color="#F7E59E"/>
<stop offset="0.6" stop-color="#F0DE96"/>
<stop offset="0.67" stop-color="#DECB80"/>
<stop offset="0.75" stop-color="#C1AD5D"/>
<stop offset="0.79" stop-color="#B39F4D"/>
</linearGradient>
<linearGradient id="paint1_linear_53414_1540" x1="1384.46" y1="2714.72" x2="1065.04" y2="2510.72" gradientUnits="userSpaceOnUse">
<stop offset="0.33" stop-color="#9C8837"/>
<stop offset="0.56" stop-color="#F7E59E"/>
<stop offset="0.6" stop-color="#F0DE96"/>
<stop offset="0.67" stop-color="#DECB80"/>
<stop offset="0.75" stop-color="#C1AD5D"/>
<stop offset="0.79" stop-color="#B39F4D"/>
</linearGradient>
<linearGradient id="paint2_linear_53414_1540" x1="760.712" y1="2517.94" x2="535.939" y2="2420.19" gradientUnits="userSpaceOnUse">
<stop offset="0.33" stop-color="#9C8837"/>
<stop offset="0.56" stop-color="#F7E59E"/>
<stop offset="0.6" stop-color="#F0DE96"/>
<stop offset="0.67" stop-color="#DECB80"/>
<stop offset="0.75" stop-color="#C1AD5D"/>
<stop offset="0.79" stop-color="#B39F4D"/>
</linearGradient>
<linearGradient id="paint3_linear_53414_1540" x1="7.9229" y1="13.1931" x2="7.58471" y2="12.9371" gradientUnits="userSpaceOnUse">
<stop offset="0.33" stop-color="#9C8837"/>
<stop offset="0.56" stop-color="#F7E59E"/>
<stop offset="0.6" stop-color="#F0DE96"/>
<stop offset="0.67" stop-color="#DECB80"/>
<stop offset="0.75" stop-color="#C1AD5D"/>
<stop offset="0.79" stop-color="#B39F4D"/>
</linearGradient>
<linearGradient id="paint4_linear_53414_1540" x1="8.99627" y1="14.4824" x2="7.95056" y2="13.7495" gradientUnits="userSpaceOnUse">
<stop offset="0.33" stop-color="#9C8837"/>
<stop offset="0.56" stop-color="#F7E59E"/>
<stop offset="0.6" stop-color="#F0DE96"/>
<stop offset="0.67" stop-color="#DECB80"/>
<stop offset="0.75" stop-color="#C1AD5D"/>
<stop offset="0.79" stop-color="#B39F4D"/>
</linearGradient>
<linearGradient id="paint5_linear_53414_1540" x1="2977.98" y1="2779.12" x2="2447.62" y2="2486.49" gradientUnits="userSpaceOnUse">
<stop offset="0.33" stop-color="#9C8837"/>
<stop offset="0.56" stop-color="#F7E59E"/>
<stop offset="0.6" stop-color="#F0DE96"/>
<stop offset="0.67" stop-color="#DECB80"/>
<stop offset="0.75" stop-color="#C1AD5D"/>
<stop offset="0.79" stop-color="#B39F4D"/>
</linearGradient>
<linearGradient id="paint6_linear_53414_1540" x1="1970.21" y1="2809.5" x2="1482.73" y2="2550.83" gradientUnits="userSpaceOnUse">
<stop offset="0.33" stop-color="#9C8837"/>
<stop offset="0.56" stop-color="#F7E59E"/>
<stop offset="0.6" stop-color="#F0DE96"/>
<stop offset="0.67" stop-color="#DECB80"/>
<stop offset="0.75" stop-color="#C1AD5D"/>
<stop offset="0.79" stop-color="#B39F4D"/>
</linearGradient>
<linearGradient id="paint7_linear_53414_1540" x1="3565.56" y1="2982.13" x2="2896.77" y2="2605.84" gradientUnits="userSpaceOnUse">
<stop offset="0.33" stop-color="#9C8837"/>
<stop offset="0.56" stop-color="#F7E59E"/>
<stop offset="0.6" stop-color="#F0DE96"/>
<stop offset="0.67" stop-color="#DECB80"/>
<stop offset="0.75" stop-color="#C1AD5D"/>
<stop offset="0.79" stop-color="#B39F4D"/>
</linearGradient>
<clipPath id="clip0_53414_1540">
<rect width="40" height="24" fill="white"/>
</clipPath>
</defs>
</svg>
