<svg xmlns="http://www.w3.org/2000/svg" width="64" height="18" viewBox="0 0 64 18" fill="none">
  <path fill-rule="evenodd" clip-rule="evenodd" d="M10.5705 1.82853C10.3464 1.48092 10.0565 1.18004 9.71446 0.939455C9.36679 0.712321 8.98834 0.534067 8.58746 0.413782C8.15352 0.277353 7.70504 0.186626 7.24866 0.142777C6.71582 0.0942322 6.18296 0.0687029 5.64747 0.0710596H1.01576C0.561845 0.031905 0.164312 0.358 0.135077 0.793637C0.135077 0.793637 0.135077 0.819172 0.135077 0.832775V8.05152C0.776817 9.37303 1.84271 10.4637 3.17958 11.1631V9.7134C3.136 9.2435 3.49782 8.82904 3.98991 8.78989H5.37946C7.27283 8.78989 8.72051 8.40769 9.71883 7.64629C10.7156 6.88457 11.222 5.75728 11.2362 4.25886C11.2386 3.82877 11.1856 3.39801 11.0793 2.97883C10.9738 2.57161 10.8021 2.18452 10.5705 1.82853ZM7.85697 5.5392C7.69523 5.80599 7.45366 6.02104 7.16709 6.15728C6.85359 6.30126 6.51555 6.38678 6.17035 6.40964C5.79188 6.45599 5.40835 6.47919 5.02744 6.47683H3.69336C3.37232 6.47683 3.17486 6.22952 3.17486 5.86329V2.88628C3.15315 2.60856 3.40401 2.38142 3.69336 2.41401H5.02744C5.45895 2.41401 5.86663 2.42577 6.24754 2.4513C6.5903 2.46492 6.92571 2.54388 7.23449 2.68265C7.52176 2.80277 7.76018 3.00892 7.91684 3.26797C8.09346 3.6154 8.17504 4.00248 8.15352 4.38888C8.1607 4.78924 8.05934 5.18523 7.85697 5.535V5.5392ZM3.18151 11.5982C2.04104 11.2022 1.00107 10.5751 0.135077 9.75777V13.2463C0.0937572 13.5267 0.303641 13.7839 0.598254 13.8117H2.69189C3.24698 13.8117 3.18151 13.2421 3.18151 13.2421V11.5982ZM31.9529 3.87262H30.1485C29.7916 3.84942 29.4712 4.07875 29.3889 4.40939L27.29 9.95936C27.29 9.95936 25.4373 4.90517 25.2976 4.51388C25.2179 4.14108 24.8803 3.87262 24.485 3.86791H22.8203C22.2267 3.86791 22.2267 4.31245 22.3065 4.48599C22.386 4.6597 24.6587 10.642 25.5486 12.9317C25.6887 13.2144 25.7874 13.513 25.8405 13.8207C25.7825 14.124 25.6645 14.4156 25.4879 14.6752C25.4207 14.7837 25.3435 14.8881 25.2568 14.9852C26.9718 14.4969 28.9621 12.7141 29.9633 10.7901C30.971 8.12309 32.3007 4.56714 32.3606 4.38403C32.4259 4.1043 32.4259 3.87262 31.9529 3.87262ZM23.9058 15.527C23.7489 15.5246 23.5945 15.511 23.4426 15.492C23.2518 15.4647 22.8899 15.492 22.8899 15.8025V17.1359C22.8899 17.6477 23.1504 17.685 23.2834 17.7192C23.713 17.81 24.1515 17.8536 24.5906 17.8515C25.1092 17.8651 25.623 17.7631 26.0962 17.5551C26.5254 17.3464 26.9088 17.055 27.2202 16.7005C27.5745 16.3141 27.8742 15.8838 28.1107 15.4203C28.3663 14.9294 28.6098 14.3854 28.8414 13.7903L29.1116 13.0822C28.5737 13.5936 26.2024 15.7397 23.9058 15.527ZM21.1723 5.46748C21.0738 5.24285 20.9385 5.0347 20.7748 4.84922C20.6055 4.68038 20.4154 4.52984 20.208 4.40484C19.9832 4.25886 19.7448 4.13386 19.4958 4.03256C19.2401 3.93712 18.9796 3.86305 18.7121 3.8056C18.4084 3.74041 18.0972 3.69891 17.7858 3.67807C17.4532 3.64565 17.0787 3.62717 16.6663 3.62717C13.9047 3.62717 12.3343 4.46298 11.9508 6.13427C11.8804 6.40089 12.0735 6.6623 12.3584 6.68548H14.0591C14.5223 6.68548 14.5223 6.54907 14.698 6.16686C14.7752 5.95871 14.913 5.77559 15.0959 5.64118C15.5306 5.37254 16.0444 5.2452 16.5581 5.2825C17.0404 5.23377 17.5228 5.34969 17.9255 5.60674C18.2318 5.88227 18.4128 6.26144 18.4298 6.66466C18.4298 7.21587 18.254 7.5791 17.5395 7.5791C15.8511 7.52096 14.0349 7.7041 13.0116 8.26893C11.984 8.8712 11.374 9.95231 11.4079 11.105C11.3981 11.5446 11.49 11.9846 11.6827 12.3852C11.8613 12.7326 12.1242 13.0382 12.4447 13.2741C12.7851 13.5385 13.1759 13.7352 13.5959 13.8508C14.0682 13.9758 14.558 14.0358 15.0476 14.0292C15.7091 14.0405 16.3673 13.9504 16.9991 13.7626C17.5568 13.5427 18.0846 13.2581 18.5695 12.9132V13.2255C18.5695 13.5313 18.6665 13.8071 19.0327 13.8071H21.0013C21.3992 13.8071 21.4911 13.5362 21.4911 13.1978V7.38002C21.4937 7.01679 21.4671 6.65509 21.4139 6.29421C21.3682 6.01146 21.2887 5.7341 21.1723 5.46748ZM18.4805 11.1838C18.4805 11.1838 17.9719 12.2069 16.1648 12.2069C15.7331 12.2259 15.3033 12.1118 14.9415 11.8832C14.6184 11.6419 14.4451 11.2602 14.4783 10.8691C14.4375 10.3387 14.7414 9.84075 15.2435 9.61612C15.974 9.3453 16.7533 9.22031 17.5375 9.2457C18.0466 9.17395 18.5023 9.55397 18.4998 10.0471L18.4805 11.1838Z" fill="#333333"/>
  <path fill-rule="evenodd" clip-rule="evenodd" d="M63.496 7.4422C63.9616 8.16008 63.9616 9.07032 63.496 9.78988C63.0328 10.4637 60.5076 13.0518 59.6753 13.8834C58.9514 14.603 57.9745 15.3325 57.0075 15.3325H36.9563C34.2423 15.3325 34.0811 14.4436 34.0811 12.4618V4.37515C34.0811 2.34449 34.7053 1.75195 36.5631 1.75195H57.0533C58.011 1.75195 58.8695 2.22437 59.8323 3.17577C60.6739 3.98807 63.1607 6.96104 63.496 7.4422Z" fill="#33CCCC"/>
  <path fill-rule="evenodd" clip-rule="evenodd" d="M59.5211 10.5009C58.9133 12.0727 57.3116 13.082 55.5675 12.9943C52.899 12.9943 51.1187 11.2508 51.1187 8.63685C51.1187 6.02324 52.9713 4.19185 55.4731 4.19185C57.9747 4.19185 59.6417 5.8544 59.7477 8.53505C59.7477 8.87744 59.6606 9.18105 59.2123 9.18105H53.5505C53.5889 10.6164 54.3059 11.4036 55.5841 11.4036C56.2789 11.4195 56.918 11.0467 57.2244 10.4523C57.3448 10.2828 57.5456 10.1855 57.7574 10.1879H59.2173C59.4026 10.181 59.5501 10.3409 59.5162 10.5168L59.5211 10.5009ZM38.6331 4.87697V4.82843C38.6331 4.567 38.6331 4.31233 38.1701 4.31233H36.4884C36.095 4.31233 36.076 4.51591 36.076 4.83782V6.97028C36.7391 6.08542 37.6175 5.36585 38.6331 4.87697ZM49.8935 12.5935V7.33117C49.8935 5.17586 48.9024 4.09961 46.9194 4.09961C46.3668 4.10599 45.8288 4.25872 45.3632 4.54397C44.8494 4.85142 44.3911 5.23614 44.0051 5.68306C43.8316 5.19871 43.4913 4.78691 43.0424 4.51376C42.5312 4.24291 41.9525 4.11056 41.3708 4.1337C40.5123 4.1386 39.6824 4.41413 39.0043 4.91679C38.8549 5.06011 36.0709 7.13927 36.0709 9.30839V12.6026C36.0709 12.7044 36.0154 13.1052 36.4837 13.1052H38.2298C38.7726 13.1052 38.7222 12.7625 38.7222 12.6216V7.28748C39.014 6.90763 39.6102 6.00711 40.5964 6.00711C40.9174 5.97941 41.2313 6.12034 41.4121 6.37522C41.6097 6.75455 41.6969 7.17843 41.6627 7.60215V12.612C41.6627 12.714 41.6075 13.1147 42.0753 13.1147H43.8028C44.3431 13.1147 44.2924 12.7721 44.2924 12.6281V7.26848C44.608 6.89167 45.2187 5.98815 46.1693 5.98815C46.4946 5.96276 46.8082 6.10222 46.999 6.3564C47.1993 6.73626 47.2881 7.15997 47.2524 7.58384V12.5935C47.2524 12.6956 47.1965 13.0956 47.6647 13.0956H49.4113C49.9588 13.0706 49.8935 12.7324 49.8935 12.5935ZM55.4828 5.84954C54.4214 5.84954 53.7049 6.55765 53.5481 7.72242H57.3448C57.2485 6.70366 56.6742 5.84954 55.4828 5.84954Z" fill="white"/>
</svg>