<svg width="17" height="24" viewBox="0 0 17 24" fill="none" xmlns="http://www.w3.org/2000/svg">
<g clip-path="url(#clip0_53414_1533)">
<path fill-rule="evenodd" clip-rule="evenodd" d="M16.0212 7.53428H10.8439V0.451535C10.8439 0.214996 11.0392 0.0205078 11.2768 0.0205078H12.0521C12.0539 1.18103 12.5171 2.29411 13.342 3.11592C14.1691 3.9372 15.2869 4.39861 16.4541 4.39861V7.53428H16.0212ZM16.4541 10.0344C16.4541 12.9883 15.7765 15.1896 14.4206 16.6242C13.0653 18.0588 10.972 18.7743 8.14925 18.7743C5.51084 18.7743 3.50972 18.0588 2.14527 16.6242C0.780933 15.1896 0.0996094 13.0271 0.0996094 10.1348V0.432057C0.0996094 0.2059 0.283974 0.0205078 0.512882 0.0205078H5.29596C5.52307 0.0223078 5.70975 0.2059 5.70975 0.432057V10.347C5.70975 11.527 5.92965 12.437 6.37473 13.0765C7.06507 13.9865 8.30001 14.2905 9.33424 13.806C9.66756 13.6491 9.96059 13.4193 10.1913 13.1348C10.6278 12.5324 10.8439 11.6473 10.8439 10.474V8.61928H16.4541V10.0344Z" fill="#1F3E79"/>
<path fill-rule="evenodd" clip-rule="evenodd" d="M13.1558 0.0205078H16.0212C16.2605 0.0205078 16.454 0.214996 16.454 0.451535V3.3086C14.6336 3.3086 13.1558 1.83859 13.1558 0.024098V0.0205078Z" fill="#F4821F"/>
<path fill-rule="evenodd" clip-rule="evenodd" d="M1.03791 23.4882C1.6716 23.4882 1.97673 23.1364 1.97673 22.6207V21.3788H1.52445V22.608C1.52445 23.2566 0.548292 23.2566 0.548292 22.608V21.3788H0.0996094V22.6243C0.0996094 23.1332 0.404867 23.4882 1.03791 23.4882ZM4.71235 23.4493V23.0622H3.70813L4.69098 21.732V21.3788H3.12812V21.7673H4.11097L3.12812 23.0925V23.4493H4.71235ZM6.82895 23.4882C7.19265 23.495 7.52972 23.2992 7.70005 22.9777L7.31716 22.7954C7.22317 22.9777 7.03507 23.0943 6.82701 23.0961C6.24341 23.0677 5.96325 22.3697 6.3661 21.9473C6.48649 21.8202 6.65359 21.7442 6.82701 21.7356C7.03507 21.7393 7.22317 21.8555 7.31716 22.0378L7.70005 21.8505C7.52972 21.5307 7.19265 21.3344 6.82895 21.3448C6.04681 21.3223 5.50221 22.1138 5.80515 22.8329C5.97909 23.2409 6.38554 23.5005 6.82895 23.4882ZM10.6986 23.4493L9.89647 21.3788H9.34325L8.53755 23.4493H9.04301L9.17292 23.0993H10.0668L10.1949 23.4493H10.6986ZM9.94462 22.7107H9.2951L9.61992 21.8202L9.94462 22.7107ZM13.6899 23.9704L12.9269 22.6615C13.2071 22.5941 13.3988 22.3345 13.381 22.0482C13.3952 21.6615 13.0691 21.3486 12.682 21.3806H11.7082V23.4511H12.1516V22.7143H12.4763L13.1808 23.9686L13.6881 23.9704H13.6899ZM12.6166 22.3273H12.1534V21.7691H12.6166C12.7834 21.7497 12.9305 21.8786 12.9305 22.0482C12.9305 22.216 12.7834 22.3466 12.6166 22.3273ZM15.3523 23.4511C16.0036 23.4511 16.4559 23.041 16.4559 22.4177C16.4559 21.7921 16.0036 21.3806 15.3523 21.3806H14.5306V23.4511H15.3523ZM15.3523 23.0622H14.9744V21.7691H15.3523C15.7215 21.7406 16.0298 22.0482 16.0036 22.4177C16.0194 22.7814 15.7161 23.0816 15.3504 23.0622H15.3523ZM16.9933 21.34V21.3448C16.9933 21.6895 16.5763 21.861 16.3333 21.6189C16.0902 21.3752 16.2625 20.96 16.6068 20.96H16.9933V21.34Z" fill="#1F3E79"/>
</g>
<defs>
<clipPath id="clip0_53414_1533">
<rect width="17" height="24" fill="white"/>
</clipPath>
</defs>
</svg>
